<svg width="48" height="48" viewBox="0 0 48 48" fill="none" xmlns="http://www.w3.org/2000/svg">
<path d="M48 42.6667V5.33333C48 2.4 45.592 0 42.6533 0H5.34667C2.28 0 0 2.27467 0 5.33333V42.6667C0 45.728 2.28 48 5.34667 48H42.6533C44.0684 47.9979 45.4251 47.4357 46.427 46.4364C47.4288 45.437 47.9944 44.0817 48 42.6667ZM37.824 28.2853C37.824 28.2853 40.8427 31.264 41.5867 32.6453C41.608 32.6747 41.616 32.7013 41.624 32.712C41.9253 33.2187 42.0027 33.6187 41.8507 33.912C41.6 34.4 40.7467 34.6453 40.456 34.6667H35.1253C34.752 34.6667 33.9787 34.5707 33.04 33.9227C32.32 33.4213 31.608 32.592 30.9147 31.784C29.88 30.584 28.984 29.544 28.0827 29.544C27.9683 29.5437 27.8547 29.5627 27.7467 29.6C27.0613 29.8187 26.192 30.792 26.192 33.392C26.192 34.2053 25.552 34.6693 25.0987 34.6693H22.656C21.824 34.6693 17.4907 34.3787 13.6533 30.328C8.944 25.368 4.71467 15.4187 4.67733 15.3307C4.41067 14.688 4.96267 14.3387 5.56267 14.3387H10.9493C11.672 14.3387 11.904 14.776 12.0693 15.168C12.256 15.6133 12.96 17.4107 14.112 19.432C15.9867 22.72 17.1413 24.0587 18.0613 24.0587C18.2334 24.0577 18.4023 24.0127 18.552 23.928C19.7547 23.264 19.5307 18.976 19.4773 18.0907C19.4773 17.9227 19.4747 16.1733 18.8613 15.3333C18.4187 14.7253 17.6693 14.4933 17.216 14.4053C17.4009 14.1506 17.6441 13.9439 17.9253 13.8027C18.7493 13.392 20.2347 13.3333 21.712 13.3333H22.5333C24.136 13.3547 24.552 13.4587 25.1307 13.6053C26.3013 13.8853 26.3253 14.6453 26.2213 17.232C26.192 17.968 26.16 18.8027 26.16 19.7813C26.16 19.992 26.152 20.224 26.152 20.464C26.1147 21.7867 26.072 23.2827 27.0053 23.896C27.1261 23.9716 27.2655 24.0122 27.408 24.0133C27.7333 24.0133 28.7067 24.0133 31.344 19.488C32.504 17.4907 33.3973 15.1333 33.4587 14.9573C33.5518 14.767 33.6867 14.6002 33.8533 14.4693C33.9899 14.3984 34.1421 14.3626 34.296 14.3653H40.6293C41.3227 14.3653 41.792 14.4693 41.88 14.7333C42.032 15.1573 41.8507 16.4507 38.9573 20.36L37.6693 22.0667C35.0453 25.5013 35.0453 25.6773 37.824 28.2853V28.2853Z" fill="#2E2E2E"/>
</svg>
